<mxfile host="app.diagrams.net" modified="2021-08-31T12:33:35.562Z" agent="5.0 (Windows NT 10.0; Win64; x64) AppleWebKit/537.36 (KHTML, like Gecko) Chrome/92.0.4515.159 Safari/537.36" etag="NzgoX89Z3fqu-p7hpEko" version="15.0.2" type="github">
  <diagram name="Page-1" id="7e0a89b8-554c-2b80-1dc8-d5c74ca68de4">
    <mxGraphModel dx="1038" dy="571" grid="1" gridSize="10" guides="1" tooltips="1" connect="1" arrows="1" fold="1" page="1" pageScale="1" pageWidth="1100" pageHeight="850" background="none" math="0" shadow="0">
      <root>
        <mxCell id="0" />
        <mxCell id="1" parent="0" />
        <mxCell id="Hb7LvTOuXkDl7Tv5DDwz-1" value="&lt;font size=&quot;1&quot;&gt;&lt;b style=&quot;font-size: 24px&quot;&gt;6T SRAM Cell&lt;/b&gt;&lt;/font&gt;" style="rounded=0;whiteSpace=wrap;html=1;fillColor=#e51400;strokeColor=#B20000;fontColor=#ffffff;" vertex="1" parent="1">
          <mxGeometry x="480" y="160" width="240" height="160" as="geometry" />
        </mxCell>
        <mxCell id="Hb7LvTOuXkDl7Tv5DDwz-5" style="edgeStyle=orthogonalEdgeStyle;rounded=0;orthogonalLoop=1;jettySize=auto;html=1;exitX=0.5;exitY=1;exitDx=0;exitDy=0;entryX=0.078;entryY=-0.011;entryDx=0;entryDy=0;entryPerimeter=0;" edge="1" parent="1" source="Hb7LvTOuXkDl7Tv5DDwz-2" target="Hb7LvTOuXkDl7Tv5DDwz-1">
          <mxGeometry relative="1" as="geometry" />
        </mxCell>
        <mxCell id="Hb7LvTOuXkDl7Tv5DDwz-2" value="&lt;font style=&quot;font-size: 18px&quot;&gt;BL&lt;/font&gt;" style="rounded=0;whiteSpace=wrap;html=1;fillColor=#76608a;strokeColor=#432D57;fontColor=#ffffff;" vertex="1" parent="1">
          <mxGeometry x="480" y="80" width="40" height="40" as="geometry" />
        </mxCell>
        <mxCell id="Hb7LvTOuXkDl7Tv5DDwz-4" style="edgeStyle=orthogonalEdgeStyle;rounded=0;orthogonalLoop=1;jettySize=auto;html=1;exitX=0.5;exitY=1;exitDx=0;exitDy=0;entryX=0.918;entryY=0.009;entryDx=0;entryDy=0;entryPerimeter=0;" edge="1" parent="1" source="Hb7LvTOuXkDl7Tv5DDwz-3" target="Hb7LvTOuXkDl7Tv5DDwz-1">
          <mxGeometry relative="1" as="geometry" />
        </mxCell>
        <mxCell id="Hb7LvTOuXkDl7Tv5DDwz-3" value="&lt;font style=&quot;font-size: 18px&quot;&gt;BLB&lt;/font&gt;" style="rounded=0;whiteSpace=wrap;html=1;fillColor=#76608a;strokeColor=#432D57;fontColor=#ffffff;" vertex="1" parent="1">
          <mxGeometry x="680" y="80" width="40" height="40" as="geometry" />
        </mxCell>
        <mxCell id="Hb7LvTOuXkDl7Tv5DDwz-6" value="&lt;font style=&quot;font-size: 18px&quot;&gt;Wordline&lt;/font&gt;" style="rounded=0;whiteSpace=wrap;html=1;fillColor=#76608a;strokeColor=#432D57;fontColor=#ffffff;" vertex="1" parent="1">
          <mxGeometry x="330" y="280" width="110" height="40" as="geometry" />
        </mxCell>
        <mxCell id="Hb7LvTOuXkDl7Tv5DDwz-8" value="" style="endArrow=none;html=1;" edge="1" parent="1">
          <mxGeometry width="50" height="50" relative="1" as="geometry">
            <mxPoint x="385" y="360" as="sourcePoint" />
            <mxPoint x="384.5" y="320" as="targetPoint" />
          </mxGeometry>
        </mxCell>
        <mxCell id="Hb7LvTOuXkDl7Tv5DDwz-9" value="" style="endArrow=none;html=1;" edge="1" parent="1">
          <mxGeometry width="50" height="50" relative="1" as="geometry">
            <mxPoint x="386" y="360" as="sourcePoint" />
            <mxPoint x="680" y="360" as="targetPoint" />
          </mxGeometry>
        </mxCell>
        <mxCell id="Hb7LvTOuXkDl7Tv5DDwz-10" value="" style="endArrow=none;html=1;startArrow=blockThin;startFill=1;" edge="1" parent="1">
          <mxGeometry width="50" height="50" relative="1" as="geometry">
            <mxPoint x="680" y="320" as="sourcePoint" />
            <mxPoint x="680" y="360" as="targetPoint" />
          </mxGeometry>
        </mxCell>
        <mxCell id="Hb7LvTOuXkDl7Tv5DDwz-11" value="" style="endArrow=none;html=1;startArrow=blockThin;startFill=1;" edge="1" parent="1">
          <mxGeometry width="50" height="50" relative="1" as="geometry">
            <mxPoint x="520" y="320" as="sourcePoint" />
            <mxPoint x="520" y="360" as="targetPoint" />
          </mxGeometry>
        </mxCell>
      </root>
    </mxGraphModel>
  </diagram>
</mxfile>
